<svg xmlns="http://www.w3.org/2000/svg" width="48" height="48" fill="none"><path fill="#333" d="M10.5 24.2c0-.41.158-.805.44-1.095.28-.29.662-.454 1.06-.454h20.385l-1.95-1.997a1.58 1.58 0 0 1-.441-1.1c0-.412.159-.807.441-1.099A1.483 1.483 0 0 1 31.5 18c.4 0 .783.164 1.065.455l4.5 4.646c.208.217.35.494.405.794a1.594 1.594 0 0 1-.64 1.589c-.245.17-.534.263-.83.264H12c-.398 0-.78-.163-1.06-.453a1.574 1.574 0 0 1-.44-1.095Z"/><path fill="#333" d="M30 28.845a1.591 1.591 0 0 1 .111-.594c.075-.19.185-.36.324-.505l4.5-4.645a1.465 1.465 0 0 1 1.641-.337c.183.078.35.192.489.337.14.144.25.315.327.504a1.6 1.6 0 0 1-.327 1.694l-4.5 4.645a1.5 1.5 0 0 1-.488.34 1.46 1.46 0 0 1-1.642-.34 1.554 1.554 0 0 1-.324-.505 1.592 1.592 0 0 1-.111-.594Z"/></svg>