<svg xmlns="http://www.w3.org/2000/svg" width="47" height="27" fill="none"><path fill="#FBFBFB" d="M5.524 22.004h8.28V26H.484V.872h5.04v21.132Zm38.114 4.248c-.912 0-1.668-.276-2.268-.828-.576-.576-.864-1.284-.864-2.124 0-.84.288-1.536.864-2.088.6-.576 1.356-.864 2.268-.864.888 0 1.62.288 2.196.864.576.552.864 1.248.864 2.088 0 .84-.288 1.548-.864 2.124-.576.552-1.308.828-2.196.828Z"/><path fill="#1BCFF6" d="M15.711 15.956c0-2.016.396-3.804 1.188-5.364.816-1.56 1.908-2.76 3.276-3.6 1.392-.84 2.94-1.26 4.644-1.26 1.488 0 2.784.3 3.888.9 1.128.6 2.028 1.356 2.7 2.268V6.056h5.076V26h-5.076v-2.916c-.648.936-1.548 1.716-2.7 2.34-1.128.6-2.436.9-3.924.9-1.68 0-3.216-.432-4.608-1.296-1.368-.864-2.46-2.076-3.276-3.636-.792-1.584-1.188-3.396-1.188-5.436Zm15.696.072c0-1.224-.24-2.268-.72-3.132-.48-.888-1.128-1.56-1.944-2.016a5.096 5.096 0 0 0-2.628-.72c-.936 0-1.8.228-2.592.684-.792.456-1.44 1.128-1.944 2.016-.48.864-.72 1.896-.72 3.096 0 1.2.24 2.256.72 3.168.504.888 1.152 1.572 1.944 2.052.816.48 1.68.72 2.592.72.936 0 1.812-.228 2.628-.684a5.237 5.237 0 0 0 1.944-2.016c.48-.888.72-1.944.72-3.168Z"/></svg>