<svg xmlns="http://www.w3.org/2000/svg" width="64" height="64" fill="none"><path fill="#FF872E" d="M54 12h-4a2 2 0 0 0-2 2v2H28.757l-2.439-7.668a6.345 6.345 0 0 0-7.851-4.063 6.224 6.224 0 0 0-3.762 3.063 6 6 0 0 0-.42 4.66L15.56 16H6a2 2 0 0 0-2 2v40a2 2 0 0 0 2 2h48a6.006 6.006 0 0 0 6-6V18a6.006 6.006 0 0 0-6-6ZM29.834 32.59l-1.5 2.743-2.9-1.486-5.454-17.15 4.385-1.305 5.469 17.199ZM18.24 9.204a2.255 2.255 0 0 1 1.367-1.1 2.322 2.322 0 0 1 2.899 1.443l.647 2.034-4.386 1.306-.67-2.106a2.028 2.028 0 0 1 .143-1.577ZM54 56H8V20h8.832l5.041 15.854a2.004 2.004 0 0 0 .994 1.173l5.375 2.753c.282.145.594.22.91.22H35a3 3 0 0 1 0 6H14v4h21a7 7 0 1 0 0-14h-2.472l1.226-2.24a1.993 1.993 0 0 0 .152-1.566L30.03 20H48v30a2 2 0 0 0 2 2h4a2 2 0 0 1 0 4Zm2-7.657A5.974 5.974 0 0 0 54 48h-2V16h2a2.002 2.002 0 0 1 2 2v30.343Z"/></svg>