<svg xmlns="http://www.w3.org/2000/svg" width="64" height="64" fill="none"><path fill="#1BCFF6" d="M56 26a6 6 0 0 0-5.64 4h-2.5A16 16 0 0 0 34 16.14v-2.5a6 6 0 1 0-4 0v2.5A16 16 0 0 0 16.14 30h-2.5a6 6 0 1 0 0 4h2.5a15.999 15.999 0 0 0 7.44 11.58l-5.02 5.04a6.16 6.16 0 0 0-6.8 1.14 6 6 0 1 0 9.64 1.68l6-6c1.498.407 3.048.596 4.6.56a15.996 15.996 0 0 0 4.6-.68l6.12 6.12a6 6 0 1 0 9.64-1.68 6 6 0 0 0-6.82-1.16l-5.06-5.06A16 16 0 0 0 47.86 34h2.5A6 6 0 1 0 56 26ZM17.42 57.42a1.999 1.999 0 0 1-2.84 0 2.002 2.002 0 0 1 0-2.84 2.001 2.001 0 0 1 2.84 0 1.998 1.998 0 0 1 0 2.84ZM48.12 54a2 2 0 1 1-.023 4 2 2 0 0 1 .023-4ZM32 6a2 2 0 1 1 0 4 2 2 0 0 1 0-4Zm0 14a12 12 0 0 1 12 12c0 1.02-.134 2.035-.4 3.02a16.001 16.001 0 0 0-5.06-3.58 7 7 0 1 0-13.08 0 16.001 16.001 0 0 0-5.06 3.58c-.266-.985-.4-2-.4-3.02a12 12 0 0 1 12-12Zm3 9a3 3 0 1 1-5.999 0A3 3 0 0 1 35 29ZM8 34a2 2 0 1 1 0-4 2 2 0 0 1 0 4Zm20 9.32a2 2 0 0 0-.8-.3 11.88 11.88 0 0 1-5-4 12 12 0 0 1 5.8-4.3 6.96 6.96 0 0 0 8 0A12 12 0 0 1 41.7 39a12 12 0 0 1-5.08 4 2.337 2.337 0 0 0-.48.18c-1.32.516-2.722.793-4.14.82-1.363.01-2.717-.22-4-.68ZM56 34a2 2 0 1 1 0-4 2 2 0 0 1 0 4Z"/></svg>