<svg xmlns="http://www.w3.org/2000/svg" width="64" height="64" fill="none"><path fill="#515DEF" fill-rule="evenodd" d="M58 12c0-3.312-2.688-6-6-6H12c-3.312 0-6 2.688-6 6v40c0 3.312 2.688 6 6 6h40c3.312 0 6-2.688 6-6V12Zm-4 0v40a2 2 0 0 1-2 2H12a2 2 0 0 1-2-2V12a2 2 0 0 1 2-2h40a2 2 0 0 1 2 2Z" clip-rule="evenodd"/><path fill="#515DEF" fill-rule="evenodd" d="M30 31c0-2.76-2.24-5-5-5h-6c-2.76 0-5 2.24-5 5v14c0 2.76 2.24 5 5 5h6c2.76 0 5-2.24 5-5V31Zm-4 0v14a1 1 0 0 1-1 1h-6a1 1 0 0 1-1-1V31a1 1 0 0 1 1-1h6a1 1 0 0 1 1 1Zm10 1h12a2 2 0 0 0 0-4H36a2 2 0 0 0 0 4Zm0 8h12a2 2 0 0 0 0-4H36a2 2 0 0 0 0 4Zm0 8h12a2 2 0 0 0 0-4H36a2 2 0 0 0 0 4ZM8 22h48a2 2 0 0 0 0-4H8a2 2 0 0 0 0 4Z" clip-rule="evenodd"/><path fill="#515DEF" d="M16 16a2 2 0 1 0 0-4 2 2 0 0 0 0 4ZM22 16a2 2 0 1 0 0-4 2 2 0 0 0 0 4ZM28 16a2 2 0 1 0 0-4 2 2 0 0 0 0 4Z"/></svg>